<?xml version="1.0" encoding="UTF-8" standalone="no"?>
<svg
   xmlns:dc="http://purl.org/dc/elements/1.1/"
   xmlns:cc="http://creativecommons.org/ns#"
   xmlns:rdf="http://www.w3.org/1999/02/22-rdf-syntax-ns#"
   xmlns:svg="http://www.w3.org/2000/svg"
   xmlns="http://www.w3.org/2000/svg"
   xmlns:sodipodi="http://sodipodi.sourceforge.net/DTD/sodipodi-0.dtd"
   xmlns:inkscape="http://www.inkscape.org/namespaces/inkscape"
   id="svg5099"
   version="1.1"
   viewBox="0 0 264.58335 269.98088"
   height="1020.4002"
   width="1000.0001"
   inkscape:version="0.91 r13725"
   sodipodi:docname="settings_icon.svg">
  <sodipodi:namedview
     pagecolor="#ffffff"
     bordercolor="#666666"
     borderopacity="1"
     objecttolerance="10"
     gridtolerance="10"
     guidetolerance="10"
     inkscape:pageopacity="0"
     inkscape:pageshadow="2"
     inkscape:window-width="1536"
     inkscape:window-height="801"
     id="namedview9"
     showgrid="false"
     inkscape:zoom="0.236"
     inkscape:cx="500"
     inkscape:cy="500.00001"
     inkscape:window-x="-8"
     inkscape:window-y="-8"
     inkscape:window-maximized="1"
     inkscape:current-layer="g6089"
     fit-margin-top="0"
     fit-margin-left="0"
     fit-margin-right="0"
     fit-margin-bottom="0" />
  <defs
     id="defs5093" />
  <metadata
     id="metadata5096">
    <rdf:RDF>
      <cc:Work
         rdf:about="">
        <dc:format>image/svg+xml</dc:format>
        <dc:type
           rdf:resource="http://purl.org/dc/dcmitype/StillImage" />
        <dc:title></dc:title>
      </cc:Work>
    </rdf:RDF>
  </metadata>
  <g
     transform="translate(-4.2977819e-7,-27.019124)"
     id="layer1">
    <g
       transform="translate(-4.0121824,31.888675)"
       id="g6089"
       style="display:inline">
      <rect
         style="color:#000000;clip-rule:nonzero;display:inline;overflow:visible;visibility:visible;opacity:1;isolation:auto;mix-blend-mode:normal;color-interpolation:sRGB;color-interpolation-filters:linearRGB;solid-color:#000000;solid-opacity:1;fill:#413f44;fill-opacity:1;fill-rule:evenodd;stroke:#000000;stroke-width:0.91924542;stroke-linecap:round;stroke-linejoin:round;stroke-miterlimit:4;stroke-dasharray:none;stroke-dashoffset:0;stroke-opacity:1;color-rendering:auto;image-rendering:auto;shape-rendering:auto;text-rendering:auto;enable-background:accumulate"
         id="rect4137"
         width="263.66412"
         height="269.06168"
         x="4.4717975"
         y="-4.409936"
         ry="0" />
      <path
         style="fill:#ffffff;fill-opacity:1;stroke-width:3.69638491"
         d="m 118.42888,251.60772 c -4.16795,-2.42761 -6.46867,-8.27001 -6.46867,-16.42641 0,-10.13373 -2.06994,-13.72915 -10.3773,-18.02506 -9.669601,-5.00034 -11.200551,-4.72202 -22.448989,4.08121 -10.53865,8.24773 -13.16185,8.86409 -20.65586,4.85342 -4.72128,-2.52676 -12.15161,-9.41934 -16.51183,-15.31685 0,0 -6.357312,-6.01057 -6.324053,-10.45548 0.03887,-5.19547 7.849203,-12.66056 7.849203,-12.66056 13.19111,-17.29443 8.82354,-28.43636 -13.24511,-33.78907 0,0 -10.276476,-0.98969 -13.834834,-5.27539 -4.396208,-5.2948 -3.499796,-19.28056 -3.499796,-19.28056 -1.17447,-22.12613 1.66932,-25.07832 24.28827,-25.2141 5.68447,-0.034 9.62344,-3.2464 12.15922,-9.916003 3.12647,-8.223233 2.21945,-12.017871 -5.44862,-22.79504 0,0 -8.131372,-6.838272 -8.130402,-12.127702 8.07e-4,-4.402829 6.592352,-11.561297 6.592352,-11.561297 12.65052,-17.766026 22.81495,-20.298477 37.25747,-9.282635 11.326408,8.639072 13.058708,8.958569 22.305199,4.113839 7.78594,-4.079464 10.02508,-7.950787 10.02508,-17.332686 0,-15.6721482 5.69846,-20.9513412 22.61527,-20.9513412 18.97158,0 25.42917,3.143823 25.48821,12.4087232 0.15983,25.083043 14.50172,34.185184 33.05173,20.976408 5.80109,-4.13074 13.02926,-7.510437 16.06258,-7.510437 4.93949,0 28.45929,23.221333 28.45929,28.098136 0,1.081411 -4.20994,7.485715 -9.35542,14.231788 -8.18338,10.728978 -8.80367,13.476538 -4.95125,21.931679 2.68718,5.897728 7.41522,9.685768 12.12771,9.716568 21.51427,0.14059 24.35727,3.17871 24.35727,26.02885 0,0 1.03529,13.7669 -3.4745,19.11527 -3.6343,4.31009 -13.42547,4.93974 -13.42547,4.93974 -13.22525,2.44015 -17.63102,4.45712 -20.33164,11.56028 -2.77453,7.29758 -1.55042,11.49242 6.39255,21.90619 0,0 7.91866,7.48058 7.95333,12.88021 0.0266,4.14255 -5.53866,9.97755 -5.53866,9.97755 -4.07525,5.48766 -11.56554,12.3372 -16.6451,15.22119 -8.46194,4.80439 -10.29003,4.43935 -21.8238,-4.35788 -10.2817,-7.84224 -13.94196,-8.86091 -19.97638,-5.55954 -10.02199,5.48294 -12.80937,10.26741 -12.87612,22.10157 -0.0881,15.61855 -24.53471,23.65888 -41.64093,13.69542 z m 30.49518,-25.40565 c 0,-13.80622 0.93601,-15.02661 16.9623,-22.1158 0,0 10.82241,-6.35754 16.96231,-5.63235 5.33985,0.63069 12.82588,7.91188 12.82588,7.91188 12.68147,9.67263 12.90638,9.70226 19.97711,2.63154 7.07072,-7.07072 7.04691,-7.29786 -2.11519,-20.17483 -9.22626,-12.96715 -9.23817,-13.0901 -2.74786,-28.36628 6.4214,-15.114 12.80188,-19.29144 29.62097,-19.39351 6.69235,-0.0406 8.31687,-2.13452 8.31687,-10.71993 0,-9.71808 -1.4008,-10.87975 -15.70964,-13.02796 -14.33764,-2.15253 -16.30108,-3.79007 -22.48186,-18.750281 0,0 -5.08954,-10.325015 -4.36679,-15.857234 0.72274,-5.532219 7.14012,-13.0494 7.14012,-13.0494 0,0 7.65789,-7.483041 7.40739,-12.247587 -0.15433,-2.935549 -5.32999,-7.025851 -5.32999,-7.025851 -7.25776,-6.568184 -7.78984,-6.520749 -18.88714,1.683843 -10.93688,8.085983 -12.14323,8.212166 -28.57264,2.988683 -16.42712,-5.222748 -17.20179,-6.101168 -18.29028,-20.739599 -1.0538,-14.171887 -1.92414,-15.28586 -11.94283,-15.28586 -10.89693,0 -12.14544,1.928439 -15.43993,23.848403 -0.75279,5.008716 -6.4467,8.879962 -18.62213,12.661068 -16.775209,5.20957 -17.909959,5.096768 -26.096609,-2.594193 -10.27335,-9.651317 -12.85948,-9.880884 -21.65376,-1.922176 -6.51957,5.900129 -6.42154,6.563161 2.74771,18.584669 9.45882,12.401153 9.47583,12.551762 3.25649,28.836884 -5.81054,15.214661 -7.40968,16.544221 -22.64689,18.829191 -14.97447,2.24556 -16.29732,3.29184 -15.2687,12.07639 0.94023,8.02965 3.64544,10.11277 16.38249,12.61521 13.70812,2.69323 15.89472,4.66911 21.54769,19.47122 6.11036,15.99974 6.07022,16.75501 -1.39484,26.2453 -9.50055,12.07799 -9.72492,18.5125 -0.81187,23.28262 5.28208,2.82688 9.63127,1.64511 18.7764,-5.10195 0,0 7.000441,-8.2502 11.902008,-8.78103 5.59446,-0.60587 15.415161,6.88171 15.415161,6.88171 8.59844,3.83855 15.88744,9.82999 16.48318,13.54888 3.47645,21.70211 4.54933,23.3009 15.63614,23.3009 10.36919,0 11.01873,-0.86139 11.01873,-14.61257 z"
         id="path6077"
         inkscape:connector-curvature="0" />
      <circle
         style="opacity:1;fill:none;fill-opacity:1;stroke:#ffffff;stroke-width:15;stroke-linecap:butt;stroke-linejoin:miter;stroke-miterlimit:4;stroke-dasharray:none;stroke-dashoffset:0;stroke-opacity:1"
         id="path6079"
         cx="136.30386"
         cy="130.1209"
         r="48.375786" />
    </g>
  </g>
</svg>
